<svg id="Layer_1" data-name="Layer 1" xmlns="http://www.w3.org/2000/svg" viewBox="0 0 277.69 132.86"><defs><style>.cls-1,.cls-3{fill:#231f20;}.cls-2{fill:#ed1c24;stroke:#fff;stroke-width:2px;}.cls-3{font-size:31.41px;font-family:KelasikHandmade, Kelasik Handmade;letter-spacing:0.02em;}</style></defs><title>Artboard 2</title><path class="cls-1" d="M4.37,81.7H9.79a2.52,2.52,0,0,0,2.77-2.77V3.56H24L63.61,59.89C66.88,64.68,71,72,71,72h.26a119.7,119.7,0,0,1-.89-12.1V11.62c0-5.67,2.4-8.06,8.2-8.06h12.6V14.39H85.79A2.47,2.47,0,0,0,83,17.17V92.54H71.67L32,36.2c-3.28-4.79-7.31-12.1-7.31-12.1h-.25s.76,7.18.76,12.1V84.47c0,5.67-2.4,8.07-8.07,8.07H4.37Z"/><path class="cls-1" d="M209.68,27.25c17.89,0,27.47,13.36,27.47,29.87,0,1.64-.38,5-.38,5h-46.5c.75,13.61,10.58,21.3,21.93,21.3,11,0,18.65-7.43,18.65-7.43l5.29,8.69a37.3,37.3,0,0,1-24.57,9.33c-20.17,0-33.91-14.49-33.91-33.4C177.66,40.36,191.53,27.25,209.68,27.25Zm14.87,26c-.38-10.58-7.06-16.26-15-16.26-9.33,0-16.89,5.68-18.78,16.26Z"/><path class="cls-1" d="M253.15,16.79A2.47,2.47,0,0,0,250.38,14h-5.17V3.56h12.1c5.67,0,8.07,2.39,8.07,8.06V79.3a2.47,2.47,0,0,0,2.77,2.78h5.17V92.54h-12.1c-5.67,0-8.07-2.4-8.07-8.07Z"/><path class="cls-2" d="M165.58,97.25c1.06-3,.34-4.77-2.45-5.93-2.89-.86-4.2.23-5.64,3-.12.22-.58.82-.58.82-1.3,2.07-3.18,3.51-5.57,2.86-5.52-1.52-5.06-10.57-13.72-12.94L135.86,93c5.52,1.52,5.19,10.6,13.72,12.94,7.36,2,12.77-.91,15.95-8.45Z"/><path class="cls-2" d="M138,88.21v1.57c0,3.41-1.3,5-4.32,5.12-3-.17-4.29-1.73-4.28-5.14V88.18l.13-43.38V43.22c0-3.41,1.3-5,4.31-5.12,3,.18,4.29,1.74,4.28,5.15v1.57Z"/><path class="cls-2" d="M110.05,75.38l-1.28.09c-2.78.18-4.12-1-4.46-4,0-3,1.13-4.38,3.9-4.56l1.28-.08,35.26-2.3,1.28-.08c2.78-.18,4.12,1,4.46,4,0,3-1.13,4.38-3.9,4.56l-1.28.09Z"/><path class="cls-2" d="M104.92,54.58l-2,.13c-4.42.29-6.52-.86-6.93-3.86,0-3,2-4.43,6.37-4.72l2-.13,56.27-3.66,2-.14c4.42-.28,6.52.87,6.94,3.86,0,3-2,4.43-6.38,4.72l-2,.13Z"/><path class="cls-2" d="M120.76,67.22l-1.39.09c-3,.19-4.44-1-4.79-4,0-3,1.24-4.39,4.23-4.58l1.39-.09,38.1-2.48,1.39-.09c3-.2,4.44,1,4.79,4,0,3-1.24,4.39-4.23,4.59l-1.39.09Z"/><path class="cls-2" d="M105.54,63.13l-2,.13c-4.25.28-6.27-.88-6.68-3.87,0-3,1.87-4.43,6.12-4.7l2-.13L159.06,51l2-.13c4.25-.28,6.27.88,6.68,3.87,0,3-1.87,4.43-6.12,4.71l-2,.12Z"/><path class="cls-2" d="M105.9,71.7l-1.39.09c-3,.19-4.44-1-4.78-4,0-3,1.23-4.38,4.23-4.58l1.38-.09,38.11-2.48,1.38-.09c3-.2,4.44,1,4.79,4,0,3-1.24,4.39-4.23,4.59l-1.39.09Z"/><path class="cls-2" d="M141.35,80.78l1.3,1.37c2.8,2.95,3.14,5.18,1.09,7.4-2.32,1.93-4.53,1.46-7.33-1.49l-1.3-1.37L99.48,49.08l-1.29-1.37c-2.8-3-3.15-5.19-1.1-7.41,2.33-1.92,4.54-1.46,7.34,1.5l1.29,1.37Z"/><path class="cls-2" d="M147.62,74.91,149,76.35c2.94,3.1,3.35,5.4,1.31,7.63-2.34,1.92-4.61,1.39-7.55-1.72l-1.36-1.44L104,41.31l-1.36-1.44c-3-3.1-3.35-5.4-1.31-7.63,2.33-1.91,4.6-1.38,7.55,1.72l1.36,1.44Z"/><path class="cls-2" d="M152.91,68l1.25,1.31c2.68,2.84,3,5,.92,7.23-2.32,1.93-4.48,1.52-7.16-1.32l-1.25-1.31-34.2-36.1-1.24-1.31c-2.69-2.84-3-5-.93-7.23,2.32-1.93,4.48-1.52,7.17,1.32l1.24,1.31Z"/><path class="cls-2" d="M159,61.82,160.09,63c2.34,2.48,2.48,4.49.41,6.68-2.31,2-4.31,1.71-6.65-.77l-1.09-1.14-29.83-31.5-1.09-1.14c-2.34-2.48-2.48-4.49-.41-6.68,2.31-1.95,4.31-1.71,6.65.77l1.09,1.14Z"/><path class="cls-2" d="M119.46,77l-1,1.51c-2.25,3.26-4.34,4-6.93,2.46-2.36-1.87-2.39-4.09-.14-7.35l1-1.51,28.67-41.47,1-1.51c2.25-3.26,4.34-4,6.93-2.47,2.36,1.88,2.39,4.09.14,7.35l-1,1.51Z"/><path class="cls-2" d="M126.48,81.91l-1.09,1.6c-2.38,3.44-4.52,4.27-7.12,2.73-2.36-1.88-2.33-4.18,0-7.62l1.1-1.59,30.26-43.78,1.1-1.59c2.38-3.44,4.52-4.28,7.11-2.73,2.36,1.88,2.34,4.18,0,7.62l-1.1,1.59Z"/><path class="cls-2" d="M133.64,86.65l-1.11,1.6c-2.39,3.46-4.54,4.31-7.13,2.77-2.36-1.89-2.33-4.19.06-7.65l1.1-1.6,30.41-44,1.11-1.6c2.39-3.46,4.54-4.3,7.13-2.76,2.36,1.88,2.33,4.19-.06,7.65l-1.1,1.59Z"/><text class="cls-3" transform="translate(68.48 125.95)">Hecho a mano</text></svg>